<?xml version="1.0" encoding="UTF-8" standalone="no"?>
<!-- Created with Inkscape (http://www.inkscape.org/) -->

<svg
   xmlns:dc="http://purl.org/dc/elements/1.1/"
   xmlns:cc="http://creativecommons.org/ns#"
   xmlns:rdf="http://www.w3.org/1999/02/22-rdf-syntax-ns#"
   xmlns:svg="http://www.w3.org/2000/svg"
   xmlns="http://www.w3.org/2000/svg"
   xmlns:sodipodi="http://sodipodi.sourceforge.net/DTD/sodipodi-0.dtd"
   xmlns:inkscape="http://www.inkscape.org/namespaces/inkscape"
   id="svg3355"
   version="1.1"
   inkscape:version="0.91 r13725"
   xml:space="preserve"
   width="70"
   height="70"
   viewBox="0 0 70 69.999999"
   sodipodi:docname="favicon.svg"
   inkscape:export-filename="/home/iraqez/WebstormProjects/agroholding_site/images/AGROHOLDING_2012_logo.svg.png"
   inkscape:export-xdpi="90"
   inkscape:export-ydpi="90"><metadata
     id="metadata3361"><rdf:RDF><cc:Work
         rdf:about=""><dc:format>image/svg+xml</dc:format><dc:type
           rdf:resource="http://purl.org/dc/dcmitype/StillImage" /><dc:title></dc:title></cc:Work></rdf:RDF></metadata><defs
     id="defs3359" /><sodipodi:namedview
     pagecolor="#ffffff"
     bordercolor="#666666"
     borderopacity="1"
     objecttolerance="10"
     gridtolerance="10"
     guidetolerance="10"
     inkscape:pageopacity="0"
     inkscape:pageshadow="2"
     inkscape:window-width="1366"
     inkscape:window-height="705"
     id="namedview3357"
     showgrid="false"
     inkscape:zoom="1.525436"
     inkscape:cx="114.16773"
     inkscape:cy="136.74525"
     inkscape:window-x="-8"
     inkscape:window-y="-8"
     inkscape:window-maximized="1"
     inkscape:current-layer="g3363"
     showguides="true"
     inkscape:guide-bbox="true"
     units="pt"
     inkscape:document-units="pt"><sodipodi:guide
       orientation="0,1"
       position="340.70489,0"
       id="guide3193" /><sodipodi:guide
       orientation="0,1"
       position="-114.26361,173.13371"
       id="guide3210" /><sodipodi:guide
       orientation="1,0"
       position="158.64317,267.46452"
       id="guide4051" /><sodipodi:guide
       orientation="1,0"
       position="1363.5446,199.28729"
       id="guide4053" /></sodipodi:namedview><g
     id="g3363"
     inkscape:groupmode="layer"
     inkscape:label="ink_ext_XXXXXX"
     transform="matrix(1.25,0,0,-1.25,0,69.999757)"><rect
       style="fill:#fbc707;fill-opacity:1;stroke-width:0.55599999;stroke-miterlimit:4;stroke-dasharray:none"
       id="rect3267"
       width="1122.3021"
       height="83.910423"
       x="-1893.2292"
       y="-1274.7175"
       transform="matrix(0.80000001,0,0,-0.80000001,0,138.19)" /><path
       style="fill:#fbc707;fill-opacity:1;stroke-width:0.55599999;stroke-miterlimit:4;stroke-dasharray:none"
       d="m -1891.234,-1232.1598 0,-40.6441 559.8399,0 559.83997,0 0,40.6441 0,40.6441 -559.83997,0 -559.8399,0 0,-40.6441 z"
       id="path3269"
       inkscape:connector-curvature="0"
       transform="matrix(0.80000001,0,0,-0.80000001,0,138.19)" /><path
       style="fill:#fbc707;fill-opacity:1;stroke-width:0.55599999;stroke-miterlimit:4;stroke-dasharray:none"
       d="m -1891.234,-1232.1598 0,-40.6441 559.8399,0 559.83997,0 0,40.6441 0,40.6441 -559.83997,0 -559.8399,0 0,-40.6441 z"
       id="path3271"
       inkscape:connector-curvature="0"
       transform="matrix(0.80000001,0,0,-0.80000001,0,138.19)" /><path
       style="fill:#fbc707;fill-opacity:1;stroke-width:0.55599999;stroke-miterlimit:4;stroke-dasharray:none"
       d="m -1892.8074,-1232.1598 0,-40.6441 559.84,0 559.83995,0 0,40.6441 0,40.6441 -559.83995,0 -559.84,0 0,-40.6441 z"
       id="path4041"
       inkscape:connector-curvature="0"
       transform="matrix(0.80000001,0,0,-0.80000001,0,138.19)" /><path
       style="fill:#fbc707;fill-opacity:1;stroke-width:0.55599999;stroke-miterlimit:4;stroke-dasharray:none"
       d="m -1892.8074,-1232.1598 0,-40.6441 559.84,0 559.83995,0 0,40.6441 0,40.6441 -559.83995,0 -559.84,0 0,-40.6441 z"
       id="path4043"
       inkscape:connector-curvature="0"
       transform="matrix(0.80000001,0,0,-0.80000001,0,138.19)" /><path
       style="fill:#fbc707;fill-opacity:1;stroke:none"
       d="m -1892.8074,-1232.1598 0,-40.6441 559.84,0 559.83995,0 0,40.6441 0,40.6441 -559.83995,0 -559.84,0 0,-40.6441 z"
       id="path4045"
       inkscape:connector-curvature="0"
       transform="matrix(0.80000001,0,0,-0.80000001,0,138.19)" /><path
       style="fill:#fbc707;fill-opacity:1;stroke:none"
       d="m -1892.8074,-1232.1598 0,-40.6441 559.84,0 559.83995,0 0,40.6441 0,40.6441 -559.83995,0 -559.84,0 0,-40.6441 z"
       id="path4047"
       inkscape:connector-curvature="0"
       transform="matrix(0.80000001,0,0,-0.80000001,0,138.19)" /><g
       id="g3521"
       transform="matrix(0.39703306,0,0,0.39703306,6.4,0.52444023)"><path
         d="m 33.949,93.5785 0.002,-0.0019 0,0 c 0,0 0,0 -0.002,0.0019"
         style="fill:#fbc707;fill-opacity:1;fill-rule:nonzero;stroke:none"
         id="path3367"
         inkscape:connector-curvature="0" /><path
         d="m 30.429,93.5785 0.002,-0.0019 0,0 c 0,0 0,0 -0.002,0.0019"
         style="fill:#fbc707;fill-opacity:1;fill-rule:nonzero;stroke:none"
         id="path3369"
         inkscape:connector-curvature="0" /><path
         d="m 39.423,100.238 c -0.196,1.903 -1.321,15.264 3.778,26.705 -0.541,0.193 -1.088,0.38 -1.637,0.555 -5.217,-11.676 -3.024,-25.545 -2.692,-27.467 0.233,0.092 0.415,0.158 0.551,0.207"
         style="fill:#fbc707;fill-opacity:1;fill-rule:nonzero;stroke:none"
         id="path3371"
         inkscape:connector-curvature="0" /><path
         d="m 29.512,110.49 0.293,0.023 c 0.103,0.009 0.201,-0.014 0.289,-0.054 0.104,2.063 0.726,10.323 4.197,18.944 -0.578,0.123 -1.153,0.242 -1.724,0.349 -3.397,-8.579 -3.205,-16.957 -3.079,-19.26 0.009,-0.001 0.011,-0.003 0.024,-0.002"
         style="fill:#fbc707;fill-opacity:1;fill-rule:nonzero;stroke:none"
         id="path3373"
         inkscape:connector-curvature="0" /><path
         d="m 22.399,97.7938 c -0.414,2.6392 -2.069,16.1972 3.719,32.9872 -0.567,0.074 -1.118,0.141 -1.646,0.203 -5.913,-17.345 -3.109,-31.025 -2.615,-33.1367 0.166,-0.0086 0.351,-0.0289 0.542,-0.0535"
         style="fill:#fbc707;fill-opacity:1;fill-rule:nonzero;stroke:none"
         id="path3375"
         inkscape:connector-curvature="0" /><path
         d="m 58.553,110.488 c -0.331,-1.376 -0.413,-2.455 -0.37,-3.312 0.662,-0.733 1.239,-1.543 1.616,-2.39 0.139,-0.309 0.252,-0.609 0.364,-0.909 0.028,-0.005 0.048,-0.016 0.074,-0.019 0.04,-0.006 0.08,0.002 0.12,-0.001 0.207,0.243 0.395,0.487 0.635,0.734 l 0.004,0.001 c 0.693,0.707 1.525,1.228 2.394,1.62 0.412,0.802 0.774,1.77 1.052,2.929 0.504,2.131 0.338,5.101 -0.485,8.816 -0.433,-0.328 -1.159,-0.948 -1.961,-1.787 -1.365,-1.423 -2.911,-3.452 -3.443,-5.682"
         style="fill:#fbc707;fill-opacity:1;fill-rule:nonzero;stroke:none"
         id="path3377"
         inkscape:connector-curvature="0" /><path
         d="m 58.287,96.8313 c 0.217,0.0898 0.432,0.2046 0.63,0.3652 -0.821,1.3445 -0.805,3.5055 0.826,5.8635 -0.152,0.469 -0.326,0.95 -0.551,1.449 l -10e-4,0.004 c -1.283,2.876 -4.647,4.858 -5.737,5.442 -0.291,-1.346 -1.728,-4.964 0.031,-9.128 1.546,-0.817 3.546,-2.1567 4.802,-3.9957"
         style="fill:#fbc707;fill-opacity:1;fill-rule:nonzero;stroke:none"
         id="path3379"
         inkscape:connector-curvature="0" /><path
         d="m 65.814,99.4684 c 1.168,1.5796 2.175,3.9996 2.994,7.2086 -1.383,-0.025 -4.926,-0.499 -7.13,-2.74 -0.03,-0.031 -0.059,-0.066 -0.091,-0.096 -2.72,-2.841 -2.576,-5.7226 -1.474,-7.0269 0.07,-0.0848 0.123,-0.1309 0.182,-0.1832 1.567,1.6285 3.777,2.4472 5.519,2.8375"
         style="fill:#fbc707;fill-opacity:1;fill-rule:nonzero;stroke:none"
         id="path3381"
         inkscape:connector-curvature="0" /><path
         d="m 57.858,87.9477 c 0.247,0.1211 0.483,0.2765 0.698,0.4929 -1.002,1.2879 -1.226,3.5055 0.207,6.0879 -0.206,0.466 -0.436,0.9418 -0.718,1.432 l -0.003,0.0036 c -1.621,2.8519 -5.304,4.5519 -6.449,5.0219 -0.171,-1.4165 -0.473,-6.4719 1.105,-9.6102 1.611,-0.666 3.703,-1.7723 5.16,-3.4281"
         style="fill:#fbc707;fill-opacity:1;fill-rule:nonzero;stroke:none"
         id="path3383"
         inkscape:connector-curvature="0" /><path
         d="m 59.327,88.5359 c 0.289,-0.2847 0.61,-0.4644 0.958,-0.5617 1.334,1.4363 3.161,2.3363 4.666,2.877 0.874,1.2035 2.05,3.6113 2.763,8.2742 -1.326,-0.1504 -4.875,-0.7457 -6.977,-2.9414 -0.116,-0.1219 -0.226,-0.2445 -0.335,-0.3762 -2.475,-3.0855 -2.419,-5.9926 -1.075,-7.2719"
         style="fill:#fbc707;fill-opacity:1;fill-rule:nonzero;stroke:none"
         id="path3385"
         inkscape:connector-curvature="0" /><path
         d="m 58.358,79.9734 c -0.605,1.3125 -0.64,3.1586 0.241,5.2594 -0.295,0.4887 -0.623,0.986 -1.008,1.509 l -10e-4,0.0051 c -2.021,2.7851 -5.797,4.3273 -6.992,4.6734 -0.025,-1.2973 0.176,-5.9293 1.811,-9.0578 1.696,-0.3242 4.09,-1.0074 5.949,-2.3891"
         style="fill:#fbc707;fill-opacity:1;fill-rule:nonzero;stroke:none"
         id="path3387"
         inkscape:connector-curvature="0" /><path
         d="M 61.129,87.3574 C 60.844,87.057 60.576,86.7309 60.35,86.3797 58.155,82.9281 58.635,80.568 60.195,79.423 c 0.553,-0.4253 0.83,-0.9023 1.474,-0.7695 0.849,0.9363 1.879,1.6774 2.873,2.2504 0.267,0.3645 0.528,0.7656 0.783,1.2094 1.063,1.8621 1.703,4.7957 1.894,8.7105 -1.239,-0.2695 -4.099,-1.3871 -6.09,-3.4664"
         style="fill:#fbc707;fill-opacity:1;fill-rule:nonzero;stroke:none"
         id="path3389"
         inkscape:connector-curvature="0" /><path
         d="m 59.398,71.8875 c -0.124,1.3164 0.125,2.9008 0.901,4.6555 -0.441,0.5906 -0.955,1.1953 -1.56,1.8211 l -0.005,0.0043 c -2.441,2.6004 -6.772,3.45 -8.072,3.5816 0.186,-1.2773 1.209,-6.0043 3.474,-8.9703 1.487,-0.093 3.458,-0.3891 5.262,-1.0922"
         style="fill:#fbc707;fill-opacity:1;fill-rule:nonzero;stroke:none"
         id="path3391"
         inkscape:connector-curvature="0" /><path
         d="m 61.008,76.5332 c -0.943,-2.0078 -1.089,-3.7051 -0.774,-5.007 0.582,-0.2809 1.135,-0.6086 1.627,-0.9969 0.724,-0.5563 1.336,-1.1234 1.881,-1.6938 0.661,0.6016 1.362,1.127 2.05,1.5446 0.442,0.625 0.858,1.3804 1.225,2.2715 1.234,3.0129 0.916,7.4918 0.809,8.9609 0,0.0262 0,0.0262 0.001,0.0445 -0.361,-0.1218 -4.195,-1.9086 -5.52,-3.2929 -0.516,-0.5399 -0.969,-1.1465 -1.299,-1.8309"
         style="fill:#fbc707;fill-opacity:1;fill-rule:nonzero;stroke:none"
         id="path3393"
         inkscape:connector-curvature="0" /><path
         d="m 61.394,65.3902 c 0.344,1.0875 0.969,2.0125 1.702,2.8133 -0.536,0.534 -1.147,1.0707 -1.848,1.611 l -0.004,3e-4 c -2.912,2.3 -7.492,2.5543 -8.836,2.5243 0.454,-1.4719 2.696,-7.4528 6.171,-9.7598 0.827,-0.5707 1.62,-0.9852 2.364,-1.2555 -0.125,1.184 -0.013,2.5461 0.45,4.0629 l 10e-4,0.0035"
         style="fill:#fbc707;fill-opacity:1;fill-rule:nonzero;stroke:none"
         id="path3395"
         inkscape:connector-curvature="0" /><path
         d="m 68.779,62.1977 c 0.77,3.1925 0.069,7.3886 -0.155,8.7699 -0.009,0.0312 -0.009,0.0535 -0.016,0.0847 -0.999,-0.4023 -3.049,-1.6386 -4.701,-3.3648 -0.729,-0.7605 -1.337,-1.6523 -1.662,-2.6832 -1.263,-4.1422 -0.105,-6.866 1.831,-7.5211 0.712,-0.2543 1.387,-0.2129 2.005,0.1207 0.28,0.15 0.549,0.359 0.805,0.6211 0.785,0.8223 1.428,2.1676 1.893,3.9727"
         style="fill:#fbc707;fill-opacity:1;fill-rule:nonzero;stroke:none"
         id="path3397"
         inkscape:connector-curvature="0" /><path
         d="m 68.806,107.613 0.218,0.003 c 0.26,0.944 3.771,12.998 11.871,21.397 -0.406,0.309 -0.818,0.616 -1.235,0.921 -8.255,-8.59 -10.968,-21.44 -11.153,-22.335 0.136,0.007 0.248,0.012 0.299,0.014"
         style="fill:#fbc707;fill-opacity:1;fill-rule:nonzero;stroke:none"
         id="path3399"
         inkscape:connector-curvature="0" /><path
         d="m 64.82,119.524 c 0.924,2.092 4.114,8.323 9.316,14.162 -0.441,0.283 -0.881,0.559 -1.315,0.829 -5.301,-6.031 -7.978,-12.808 -8.73,-14.91 -0.054,-0.158 -0.1,-0.289 -0.137,-0.392 l 0.608,-0.29 c 0.048,0.118 0.134,0.323 0.258,0.601"
         style="fill:#fbc707;fill-opacity:1;fill-rule:nonzero;stroke:none"
         id="path3401"
         inkscape:connector-curvature="0" /><path
         d="m 53.912,110.78 c 0.135,-0.071 0.309,-0.173 0.475,-0.27 0.236,1.273 2.849,13.85 13.487,26.959 -0.452,0.26 -0.878,0.5 -1.276,0.724 -11.008,-13.63 -12.703,-26.744 -12.78,-27.362 l 0.094,-0.051"
         style="fill:#fbc707;fill-opacity:1;fill-rule:nonzero;stroke:none"
         id="path3403"
         inkscape:connector-curvature="0" /><path
         d="m 33.902,85.4051 c 0.086,-0.0492 0.162,-0.0903 0.231,-0.1196 1.01,2.3016 3.063,3.9997 4.749,5.0754 0.609,2.0938 0.716,4.9946 0.319,8.6407 -1.449,-0.5571 -5.004,-2.4114 -6.452,-5.5891 -0.021,-0.0469 -0.04,-0.0875 -0.06,-0.1336 -1.752,-3.9973 -0.467,-6.9387 1.213,-7.8738"
         style="fill:#fbc707;fill-opacity:1;fill-rule:nonzero;stroke:none"
         id="path3405"
         inkscape:connector-curvature="0" /><path
         d="m 31.965,84.7184 c 0.218,0.1949 0.42,0.4222 0.579,0.7027 -1.21,1.1238 -1.888,3.2059 -1.23,5.9867 -0.406,0.5442 -0.867,1.0934 -1.419,1.643 l -0.002,0.0027 c -2.49,2.5012 -6.826,3.2727 -8.205,3.4594 0.223,-1.5121 0.129,-5.8242 3.63,-9.4785 1.956,-0.2571 4.598,-0.8856 6.647,-2.316"
         style="fill:#fbc707;fill-opacity:1;fill-rule:nonzero;stroke:none"
         id="path3407"
         inkscape:connector-curvature="0" /><path
         d="m 26.865,99.0285 c 0.192,-1.5609 0.53,-2.7133 0.912,-3.5847 0.99,-0.5098 1.921,-1.1305 2.654,-1.8672 0.269,-0.2707 0.506,-0.5383 0.745,-0.8075 0.026,0.0055 0.053,0.0016 0.08,0.0079 0.196,0.0418 0.377,0.1113 0.549,0.1957 0.095,0.2382 0.159,0.4664 0.272,0.7113 l 0,0.0035 c 0.377,0.8254 0.902,1.552 1.499,2.2016 0.207,1.098 0.236,2.4339 0.043,3.9976 -0.31,2.4113 -1.655,5.4353 -3.988,8.9843 -0.328,-0.508 -0.852,-1.43 -1.371,-2.612 -0.881,-2.005 -1.713,-4.711 -1.395,-7.2305"
         style="fill:#fbc707;fill-opacity:1;fill-rule:nonzero;stroke:none"
         id="path3409"
         inkscape:connector-curvature="0" /><path
         d="m 35.012,75.318 c 0.21,0.2164 0.398,0.4675 0.539,0.7691 -1.565,0.9567 -2.665,3.1871 -2.174,6.4203 -0.401,0.4074 -0.832,0.8145 -1.322,1.2156 l -0.002,8e-4 c -2.84,2.343 -7.403,2.6965 -8.795,2.7489 0.375,-1.5375 2.049,-6.9184 4.952,-9.5707 1.963,-0.0743 4.611,-0.42 6.802,-1.584"
         style="fill:#fbc707;fill-opacity:1;fill-rule:nonzero;stroke:none"
         id="path3411"
         inkscape:connector-curvature="0" /><path
         d="m 41.519,81.6957 c 0.346,1.6973 0.453,4.5281 -0.498,9.0324 -1.339,-0.6676 -4.857,-2.6488 -6.213,-5.7398 -0.074,-0.1684 -0.144,-0.3406 -0.204,-0.5188 -1.4,-4.1562 -0.193,-7.1586 1.731,-7.9742 0.342,-0.1547 0.681,-0.2289 1.014,-0.2359 0.802,2.3261 2.639,4.2004 4.17,5.4363"
         style="fill:#fbc707;fill-opacity:1;fill-rule:nonzero;stroke:none"
         id="path3413"
         inkscape:connector-curvature="0" /><path
         d="m 39.878,66.8871 c -1.706,0.7676 -3.023,2.8477 -3.033,5.9094 -0.5,0.3906 -1.033,0.7789 -1.638,1.1676 l -0.005,7e-4 c -3.229,2.1254 -7.826,2.2762 -9.226,2.177 0.543,-1.5215 3.038,-7.2941 6.6,-9.5719 2.016,0.234 4.585,0.2457 6.833,-0.5929 0.199,0.2589 0.359,0.5628 0.469,0.9101"
         style="fill:#fbc707;fill-opacity:1;fill-rule:nonzero;stroke:none"
         id="path3415"
         inkscape:connector-curvature="0" /><path
         d="m 43.757,82.3988 c -1.202,-0.7562 -3.779,-3.0152 -5.069,-5.9422 -0.182,-0.4226 -0.332,-0.8605 -0.436,-1.3183 -0.956,-4.425 0.479,-6.702 2.578,-7.2938 0.356,-0.1066 0.652,-0.2492 0.93,-0.3308 0.568,2.3804 2.119,4.4062 3.511,5.8117 0.201,2.2836 -0.303,5.3297 -1.514,9.0734"
         style="fill:#fbc707;fill-opacity:1;fill-rule:nonzero;stroke:none"
         id="path3417"
         inkscape:connector-curvature="0" /><path
         d="m 41.621,63.6988 c -0.577,0.3399 -1.188,0.6735 -1.875,0.9981 l -0.006,0.0019 c -3.605,1.7668 -8.517,0.9864 -9.941,0.6231 0.784,-1.3981 4.36,-6.875 8.476,-8.6598 2.034,0.4785 4.588,0.7859 6.892,0.3246 0.199,0.3113 0.326,0.6797 0.393,1.0852 -1.872,0.5187 -3.522,2.466 -3.939,5.6269"
         style="fill:#fbc707;fill-opacity:1;fill-rule:nonzero;stroke:none"
         id="path3419"
         inkscape:connector-curvature="0" /><path
         d="m 47.497,74.2781 c -0.009,0.0227 -0.009,0.0227 -0.017,0.0446 -0.334,-0.2668 -3.679,-3.5969 -4.533,-5.545 -0.334,-0.7597 -0.57,-1.5664 -0.652,-2.4047 -0.385,-4.6855 1.809,-7.1234 4.055,-7.4093 0.423,-0.0637 0.782,-0.1207 1.116,-0.0961 0.086,0.8265 0.3,1.6246 0.607,2.3777 0.006,0.0137 0.012,0.0328 0.02,0.0461 0.113,0.2758 0.237,0.5477 0.37,0.8121 0.012,0.027 0.026,0.0535 0.041,0.0789 0.139,0.268 0.285,0.5305 0.436,0.7836 0.005,0.007 0.009,0.0153 0.013,0.0227 0.381,0.6246 0.799,1.1976 1.22,1.7179 0.088,3.5981 -1.988,8.0899 -2.676,9.5715"
         style="fill:#fbc707;fill-opacity:1;fill-rule:nonzero;stroke:none"
         id="path3421"
         inkscape:connector-curvature="0" /><path
         d="m 52.539,48.5879 c 0.182,0.3812 0.277,0.8094 0.273,1.2781 -1.971,0.2383 -3.992,1.9934 -4.904,5.1426 -0.657,0.273 -1.35,0.5316 -2.119,0.7672 l -0.004,0.0012 c -3.984,1.2718 -8.921,-0.2219 -10.33,-0.7668 1.059,-1.3606 5.784,-6.72 10.365,-7.7872 0.042,-0.0113 0.08,-0.0179 0.123,-0.0273 1.928,0.7656 4.31,1.4356 6.596,1.3922"
         style="fill:#fbc707;fill-opacity:1;fill-rule:nonzero;stroke:none"
         id="path3423"
         inkscape:connector-curvature="0" /><path
         d="m 56.526,56.6301 c -0.017,0.2097 -0.019,0.407 -0.041,0.6254 -0.445,3.6199 -2.838,7.716 -3.622,9.0605 -0.022,0.0352 -0.031,0.0547 -0.049,0.0867 -0.895,-0.8035 -2.574,-2.8781 -3.64,-5.3047 -0.467,-1.0718 -0.76,-2.2332 -0.699,-3.432 0.296,-4.7898 2.595,-7.1805 4.896,-7.118 0.537,0.009 1.004,0.1426 1.413,0.375 -0.053,1.3668 0.264,2.7227 0.805,3.9579 0.273,0.6234 0.599,1.1992 0.937,1.7492"
         style="fill:#fbc707;fill-opacity:1;fill-rule:nonzero;stroke:none"
         id="path3425"
         inkscape:connector-curvature="0" /><path
         d="m 61.577,41.168 c 0.155,0.4519 0.195,0.9429 0.1,1.4574 -2.076,-0.0758 -4.442,1.3855 -5.873,4.4258 -0.72,0.1746 -1.479,0.3324 -2.317,0.4578 -4.282,0.616 -9.215,-1.8012 -10.584,-2.5899 1.368,-1.2144 7.219,-5.8261 12.103,-6.1449 0.183,-0.0179 0.352,-0.0207 0.528,-0.0304 1.777,1.0687 3.91,2.0679 6.043,2.4242"
         style="fill:#fbc707;fill-opacity:1;fill-rule:nonzero;stroke:none"
         id="path3427"
         inkscape:connector-curvature="0" /><path
         d="m 59.581,59.2938 c -0.021,0.03 -0.031,0.0476 -0.05,0.0769 -0.737,-0.7781 -1.991,-2.6848 -2.964,-4.8988 -0.642,-1.4684 -0.909,-3.1457 -0.553,-4.7395 l -0.099,0.0387 c 1.046,-4.7875 4.036,-6.3977 6.404,-5.9816 0.55,0.1066 0.931,0.1675 1.249,0.3523 -0.346,1.9687 0.114,4.0395 0.794,5.8074 -0.055,0.2531 -0.117,0.5094 -0.189,0.7754 -1.067,3.5926 -3.718,7.3356 -4.592,8.5692"
         style="fill:#fbc707;fill-opacity:1;fill-rule:nonzero;stroke:none"
         id="path3429"
         inkscape:connector-curvature="0" /><path
         d="m 52.184,35.423 c 1.582,-1.021 8.458,-4.8781 13.459,-4.389 2.896,0.2769 5.038,1.2711 6.035,2.8019 0.512,0.7832 0.659,1.6672 0.479,2.5282 -2.086,-0.5532 -4.715,0.6687 -6.714,3.5914 -0.852,0.0601 -1.752,0.0906 -2.729,0.0754 -4.535,-0.0922 -9.254,-3.5207 -10.53,-4.6079"
         style="fill:#fbc707;fill-opacity:1;fill-rule:nonzero;stroke:none"
         id="path3431"
         inkscape:connector-curvature="0" /><path
         d="m 72.41,37.5328 c 0.844,0.2731 1.441,0.7996 1.781,1.5637 10e-4,0.0039 0.003,0.0062 0.002,0.0113 0.63,1.4426 0.289,3.6422 -0.962,6.186 -1.18,2.3871 -3.413,4.8351 -6.37,7.8589 -0.396,-0.6004 -0.615,-1.4941 -1.205,-2.8386 -0.952,-2.1739 -1.494,-5.075 -0.52,-7.4789 l -0.132,0.2203 C 66.885,38.3641 70.041,36.7 72.41,37.5328"
         style="fill:#fbc707;fill-opacity:1;fill-rule:nonzero;stroke:none"
         id="path3433"
         inkscape:connector-curvature="0" /><path
         d="m 49.317,11.2191 c 7.305,1.7539 12.263,4.943 18.713,6.3098 16.43,3.4832 29.251,-3.1059 33.39,-5.5559 -8.336,12.2411 -23.729,21.611 -28.232,23.3981 l 0.231,1.2437 C 75.347,35.3699 104.997,20.4711 107.851,3.56797 L 106.592,0 c -0.132,0.782813 -0.308,1.56094 -0.523,2.33398 -0.178,0.63907 -1.279,2.86993 -2.833,4.36797 C 97.982,11.7648 84.229,14.5199 75.764,14.541 62.802,14.5738 59.076,10.2988 49.12,8.22188 41.506,6.63398 37.213,10.2629 37.213,10.2629 c 0,0 5.597,-0.60509 12.104,0.9562"
         style="fill:#fbc707;fill-opacity:1;fill-rule:nonzero;stroke:none"
         id="path3435"
         inkscape:connector-curvature="0" /><path
         d="m 80.551,21.523 c 5.229,-0.4371 9.774,-2.7289 9.56,-2.5589 -8.48,6.7179 -16.345,3.298 -24.761,5.2988 C 58.699,25.843 52.84,29.2871 44.003,36.3949 34.146,44.325 25.694,54.9453 19.602,56.7531 18.536,57.0695 13.636,55.5828 9.002,54.9516 4.368,54.3199 0,54.5434 0,54.5434 c 0.871,-0.1704 2.275,-2.6461 8.841,-2.695 5.71,-0.0421 6.402,1.5164 9.631,0.5075 5.863,-1.8325 15.995,-13.3024 22.415,-18.911 9.739,-8.509 15.61,-11.0961 24.125,-12.1949 4.835,-0.6238 9.93,0.743 15.539,0.273"
         style="fill:#fbc707;fill-opacity:1;fill-rule:nonzero;stroke:none"
         id="path3437"
         inkscape:connector-curvature="0" /><path
         d="m 78.695,72.8715 c 1.025,3.3957 3.676,8.2695 7.955,10.8367 -0.001,-8e-4 -3.966,-5.116 -5.972,-11.7109 -1.645,-5.4114 -1.53,-12.2368 -0.571,-19.1575 0.649,-4.6843 2.526,-9.4035 4.694,-13.7433 1.411,-2.8246 9.479,-15.2305 6.68,-12.7387 -1.817,1.6172 -3.38,3.0531 -3.38,3.0531 -1.283,1.2512 -17.779,15.7125 -9.406,43.4606"
         style="fill:#fbc707;fill-opacity:1;fill-rule:nonzero;stroke:none"
         id="path3439"
         inkscape:connector-curvature="0" /></g></g></svg>